inDegrees=no
num_controls=7
num_derivatives=13
num_iterations=82
num_multipliers=7
num_parameters=0
num_slacks=7
num_states=26
objective=0.445911
objective_accelerations=0.009587
objective_balance=0.000578
objective_effort=0.006488
objective_height=0.421540
objective_ligament=0.007718
solver_duration=1184.366108
status=Solve_Succeeded
success=true
DataType=double
version=3
OpenSimVersion=4.5
endheader
time	/jointset/ground_pelvis/pelvis_tilt/value	/jointset/ground_pelvis/pelvis_tx/value	/jointset/ground_pelvis/pelvis_ty/value	/jointset/hip_l/hip_flexion_l/value	/jointset/hip_l/hip_adduction_l/value	/jointset/hip_l/hip_rotation_l/value	/jointset/back/lumbar_extension/value	/jointset/patellofemoral_l/patellar_flexion_l/value	/jointset/knee_l/knee_flexion_l/value	/jointset/knee_l/knee_adduction_l/value	/jointset/knee_l/knee_rotation_l/value	/jointset/ankle_l/ankle_angle_l/value	/jointset/subtalar_l/subtalar_angle_l/value	/jointset/ground_pelvis/pelvis_tilt/speed	/jointset/ground_pelvis/pelvis_tx/speed	/jointset/ground_pelvis/pelvis_ty/speed	/jointset/hip_l/hip_flexion_l/speed	/jointset/hip_l/hip_adduction_l/speed	/jointset/hip_l/hip_rotation_l/speed	/jointset/back/lumbar_extension/speed	/jointset/patellofemoral_l/patellar_flexion_l/speed	/jointset/knee_l/knee_flexion_l/speed	/jointset/knee_l/knee_adduction_l/speed	/jointset/knee_l/knee_rotation_l/speed	/jointset/ankle_l/ankle_angle_l/speed	/jointset/subtalar_l/subtalar_angle_l/speed	/forceset/tau_hip_flexion_l	/forceset/tau_hip_adduction_l	/forceset/tau_hip_rotation_l	/forceset/tau_knee_flexion_l	/forceset/tau_ankle_angle_l	/forceset/tau_subtalar_angle_l	/forceset/tau_lumbar_extension	lambda_cid13_p0	lambda_cid13_p1	lambda_cid13_p2	lambda_cid13_p3	lambda_cid13_p4	lambda_cid13_p5	lambda_cid14_p0	/jointset/ground_pelvis/pelvis_tilt/accel	/jointset/ground_pelvis/pelvis_tx/accel	/jointset/ground_pelvis/pelvis_ty/accel	/jointset/hip_l/hip_flexion_l/accel	/jointset/hip_l/hip_adduction_l/accel	/jointset/hip_l/hip_rotation_l/accel	/jointset/back/lumbar_extension/accel	/jointset/patellofemoral_l/patellar_flexion_l/accel	/jointset/knee_l/knee_flexion_l/accel	/jointset/knee_l/knee_adduction_l/accel	/jointset/knee_l/knee_rotation_l/accel	/jointset/ankle_l/ankle_angle_l/accel	/jointset/subtalar_l/subtalar_angle_l/accel	gamma_cid13_p0	gamma_cid13_p1	gamma_cid13_p2	gamma_cid13_p3	gamma_cid13_p4	gamma_cid13_p5	gamma_cid14_p0
0.5	0.1048451425881184	0.1920822547390798	0.8914432839556252	0.04999972567478414	-0.3664646211909485	-0.2054452226934328	-0.1647330570689463	0.3692181676073619	0.3692181676074138	-0.1183155782862356	-0.1744980799470722	0.2941814413813368	0.1543576445083682	0.1239892519653637	0.2213632580159908	-0.05503904238726598	-0.195684884148261	-0.02853321213787301	0.0741961349154782	0.1851473622575852	0.4173107089944696	0.4173107089944822	0.0731619233070622	0.0002137959383247673	0.5264509165557745	0.179553873154193	0.07274403912090989	0.02048848182315149	0.006237113417330339	-0.1671357034792128	-0.04134042494075436	-0.03909288294045922	-0.01026886686083161	-42.95257006329867	24.48548863781314	-4.169550178828709	6.59433665908103	-459.1397578944647	-43.97511476112598	-25.09774943903772	-0.2887087358528901	-0.1666602133926387	-0.06482446303651344	0.2060379550872384	-0.01589504464102317	-0.2532491527704591	0.2011202232359739	-0.4747807611849807	-0.4747807611849851	-0.09137454474291827	0.01448947420845762	-0.4658082863573065	-0.03172824248645061	3.522591796397951e-09	-1.928890498455096e-07	6.001946723033857e-08	-1.571608305146393e-08	1.439981444064077e-08	-1.452958529296204e-07	-1.823057265498341e-08
0.51	0.1060702466054973	0.1942873085977673	0.8908897565584405	0.04805358950920297	-0.3667507607690466	-0.2047166643917096	-0.1628716269704649	0.3733670435369962	0.3733670435370446	-0.117588535750769	-0.1744959311759524	0.2994219917371284	0.156151288044277	0.1210038347033454	0.219622828793783	-0.0556534288642852	-0.1935145405845842	-0.02868798157627653	0.07150398411912945	0.1871197174298549	0.4123976101966221	0.4123976101966406	0.0722425853340745	0.0002153460158138696	0.5215883774308226	0.1791510005287835	0.07360361936209325	0.02159164762644582	0.006322103254321213	-0.1672528102881274	-0.04479487752355953	-0.03836229571123988	-0.01098372846924803	-44.06775370166123	24.4021249641199	-4.200429958323826	7.039022808014349	-459.5588258377788	-43.91214986630357	-25.03321897085257	-0.3076150535969631	-0.1814401411571335	-0.05779151483907471	0.2267049561435674	-0.01424700321823241	-0.2789403881608475	0.1924521630728816	-0.5096007874197684	-0.5096007874188944	-0.09283761419907455	-0.007098021291654759	-0.5070995054391	-0.04811875600151799	3.200027792125548e-09	-2.022293049329894e-07	7.156895493310509e-08	-1.628783058811379e-08	1.379330418084327e-08	-1.668800780512794e-07	-1.923040529225439e-08
0.52	0.1072646650838074	0.1964742169913282	0.8903304761415245	0.04612999125909802	-0.3670382438634902	-0.2040153760669698	-0.1609910415204877	0.3774647832089678	0.3774647832090512	-0.1168708114331315	-0.1744937840632592	0.3046117921456959	0.1579401924572447	0.1178521441525168	0.2177341649906694	-0.05618964633353361	-0.1911773010554746	-0.02880191540580611	0.06874213951902627	0.1889784325561492	0.4070834574653704	0.4070834574653946	0.07129827973618925	0.0002134642608703422	0.5163009271108689	0.1786060485660394	0.0744631996034729	0.0226948134297343	0.00640709309153349	-0.1673699170969816	-0.04824933010634511	-0.03763170848202296	-0.01169859007751522	-45.1856601030769	24.31635430953049	-4.227632031752327	7.490769665583557	-460.0242849473474	-43.86336293851105	-24.96819750065926	-0.3219633936147845	-0.1963071295739549	-0.04919066148233048	0.2394171481738257	-0.007727922866209326	-0.2671879135213731	0.1783922140409721	-0.554991547865808	-0.5549915478658402	-0.09636806972236905	0.01380310772188911	-0.5507905253578618	-0.06014410995341924	2.583236659690222e-09	-2.195910023579745e-07	9.323811323381965e-08	-1.762750675685544e-08	1.138237349124135e-08	-2.076360129817182e-07	-2.109259144616741e-08
0.53	0.1084267471174764	0.198641515827246	0.8897662271624747	0.04423058205320086	-0.3673266984612616	-0.2033419319972042	-0.1590924218037695	0.3815074006834959	0.3815074006835252	-0.1161627540817798	-0.174491618239367	0.30974662122717	0.1597228756359034	0.1145384447979862	0.2157026090571133	-0.05664651542423209	-0.1886780075905167	-0.02888109660941229	0.06593538994143225	0.1907268747939769	0.4013771265411532	0.4013771265411671	0.07031212894458065	0.0002180236153485854	0.5105982808266222	0.177908040069738	0.07532886061350802	0.02375268502109992	0.006477656394218179	-0.1675218692405912	-0.05156974401241807	-0.03691626618692385	-0.0124169813253586	-46.25899519750884	24.23113291392777	-4.256950275551469	7.900847253742832	-460.4554583974091	-43.81497946455286	-24.90276489017121	-0.3399451329811882	-0.210032462233876	-0.04188790176563226	0.2591665062316057	-0.006821577936949823	-0.2891274748134076	0.1702748297959174	-0.5878860852081617	-0.5878860852096716	-0.09992190886598266	-0.006457736951181942	-0.5900002163233635	-0.07798798510414205	2.233598724117902e-09	-2.306251563644433e-07	1.073417298865065e-07	-1.8447037164206e-08	1.003656121612265e-08	-2.342014496298887e-07	-2.222555329910541e-08
